<?xml version="1.0" encoding="utf-8"?>
<!-- Generator: Adobe Illustrator 21.0.0, SVG Export Plug-In . SVG Version: 6.00 Build 0)  -->
<svg version="1.1" id="Layer_1" xmlns="http://www.w3.org/2000/svg" xmlns:xlink="http://www.w3.org/1999/xlink" x="0px" y="0px"
	 viewBox="0 0 100 100" style="enable-background:new 0 0 100 100;" xml:space="preserve">
<style type="text/css">
	.st0{fill:#FFFFFF;}
</style>
<g id="group">
	<rect x="87.2" y="29.3" class="st0" width="8.3" height="16.3"/>
	<polygon class="st0" points="87.2,54.3 95.5,54.3 95.5,70.7 87.2,70.7 	"/>
	<rect x="4.5" y="54.3" class="st0" width="8.3" height="16.3"/>
	<polygon class="st0" points="4.8,29.3 13.1,29.3 13.1,46 4.8,46 	"/>
	<polygon class="st0" points="29.5,29.3 70.8,29.7 70.8,37.7 29.5,37.7 	"/>
	<rect x="29.5" y="46" class="st0" width="28.7" height="8.3"/>
	<rect x="29.5" y="62.3" class="st0" width="41.4" height="8"/>
	<polygon class="st0" points="95.5,95.4 78.9,95.4 78.9,86.7 87.2,86.7 87.2,78.7 95.5,78.7 	"/>
	<rect x="54.2" y="87" class="st0" width="16.7" height="8.3"/>
	<rect x="29.5" y="87" class="st0" width="16.3" height="8.3"/>
	<polygon class="st0" points="21.1,95.4 4.8,95.4 4.8,78.7 13.1,78.7 13.1,87 21.1,87 	"/>
	<polygon class="st0" points="4.5,4.6 21.5,4.6 21.5,13 13.1,13 13.1,21 4.5,21 	"/>
	<rect x="29.5" y="4.6" class="st0" width="16.7" height="8.3"/>
	<rect x="54.5" y="4.6" class="st0" width="16.3" height="8.3"/>
	<polygon class="st0" points="78.9,4.6 95.5,4.6 95.5,21 87.2,21 87.2,13 78.9,13 	"/>
</g>
</svg>
